<?xml version="1.0"?>
<svg xmlns="http://www.w3.org/2000/svg" xmlns:xlink="http://www.w3.org/1999/xlink" xmlns:svgjs="http://svgjs.com/svgjs" version="1.1" width="512" height="512" x="0" y="0" viewBox="0 0 64 64" style="enable-background:new 0 0 512 512" xml:space="preserve" class=""><g><path xmlns="http://www.w3.org/2000/svg" d="m44.462 18.114 1.924 5.084 1.307-1.307-2.845-3.984c-.133.062-.256.141-.386.207z" fill="#02a5dc" data-original="#000000" style="" class=""/><path xmlns="http://www.w3.org/2000/svg" d="m53.542 18.102c-.13-.066-.261-.129-.394-.19l-2.842 3.979 1.307 1.307z" fill="#02a5dc" data-original="#000000" style="" class=""/><circle xmlns="http://www.w3.org/2000/svg" cx="32" cy="13" r="6" fill="#02a5dc" data-original="#000000" style="" class=""/><path xmlns="http://www.w3.org/2000/svg" d="m51.169 17.244c-.7-.156-1.424-.244-2.169-.244-.737 0-1.454.106-2.156.262l2.156 3.018z" fill="#02a5dc" data-original="#000000" style="" class=""/><circle xmlns="http://www.w3.org/2000/svg" cx="49" cy="9" r="6" fill="#02a5dc" data-original="#000000" style="" class=""/><path xmlns="http://www.w3.org/2000/svg" d="m13.173 17.175c.312 1.068 1.025 1.825 1.827 1.825.799 0 1.509-.751 1.823-1.812-.596-.111-1.202-.188-1.823-.188-.625 0-1.234.065-1.827.175z" fill="#02a5dc" data-original="#000000" style="" class=""/><path xmlns="http://www.w3.org/2000/svg" d="m34.436 21.313.586 7.956-3.022 4.534-3.022-4.534.586-7.956c-4.338 1.092-7.564 5.015-7.564 9.687v3.054 4.946c0 1.103.897 2 2 2h1v-14h2v32c0 1.103.897 2 2 2s2-.897 2-2v-21h2v21c0 1.103.897 2 2 2s2-.897 2-2v-32h2v14h1c1.103 0 2-.897 2-2v-5-3c0-4.672-3.226-8.595-7.564-9.687z" fill="#02a5dc" data-original="#000000" style="" class=""/><path xmlns="http://www.w3.org/2000/svg" d="m55.26 19.214-2.873 7.588-3.387-3.387-3.387 3.387-2.869-7.575c-1.028.826-1.887 1.857-2.53 3.049 2.325 2.189 3.786 5.286 3.786 8.724v3 5 16c0 1.103.897 2 2 2s2-.897 2-2v-21h2v21c0 1.103.897 2 2 2s2-.897 2-2v-31h2v13h1c1.103 0 2-.897 2-2v-8c0-3.145-1.463-5.951-3.74-7.786z" fill="#02a5dc" data-original="#000000" style="" class=""/><path xmlns="http://www.w3.org/2000/svg" d="m18.735 17.75c-.568 1.914-2.02 3.25-3.735 3.25-1.72 0-3.177-1.344-3.74-3.267-3.665 1.485-6.26 5.076-6.26 9.267v8c0 1.103.897 2 2 2h1v-14h2v32c0 1.103.897 2 2 2s2-.897 2-2v-21h2v21c0 1.103.897 2 2 2s2-.897 2-2v-16-4.946-3.054c0-3.438 1.461-6.535 3.786-8.724-1.121-2.079-2.916-3.662-5.051-4.526z" fill="#02a5dc" data-original="#000000" style="" class=""/><path xmlns="http://www.w3.org/2000/svg" d="m31.59 21.021-.568 7.711.978 1.465.978-1.466-.568-7.711c-.137-.005-.272-.02-.41-.02s-.273.015-.41.021z" fill="#02a5dc" data-original="#000000" style="" class=""/><circle xmlns="http://www.w3.org/2000/svg" cx="15" cy="9" r="6" fill="#02a5dc" data-original="#000000" style="" class=""/></g></svg>
